HIERARCHY
ROOT Hips
{
	OFFSET 0.000000 0.000000 0.000000 
	CHANNELS 6 Xposition Yposition Zposition Zrotation Yrotation Xrotation
	JOINT LeftUpLeg
	{
		OFFSET 1.363060 -1.794630 0.839290 
		CHANNELS 3 Zrotation Yrotation Xrotation
		JOINT LeftLeg
		{
			OFFSET 2.448110 -6.726130 0.000000 
			CHANNELS 3 Zrotation Yrotation Xrotation
			JOINT LeftFoot
			{
				OFFSET 2.562200 -7.039590 0.000000 
				CHANNELS 3 Zrotation Yrotation Xrotation
				JOINT LeftToeBase
				{
					OFFSET 0.157640 -0.433110 2.322550 
					CHANNELS 3 Zrotation Yrotation Xrotation
					End Site
					{
						OFFSET 0.000000 0.000000 0.000000 
					}
				}
			}
		}
	}
	JOINT RightUpLeg
	{
		OFFSET -1.305520 -1.794630 0.839290 
		CHANNELS 3 Zrotation Yrotation Xrotation
		JOINT RightLeg
		{
			OFFSET -2.542530 -6.985550 0.000000 
			CHANNELS 3 Zrotation Yrotation Xrotation
			JOINT RightFoot
			{
				OFFSET -2.568260 -7.056230 0.000000 
				CHANNELS 3 Zrotation Yrotation Xrotation
				JOINT RightToeBase
				{
					OFFSET -0.164730 -0.452590 2.363150 
					CHANNELS 3 Zrotation Yrotation Xrotation
					End Site
					{
						OFFSET 0.000000 0.000000 0.000000 
					}
				}
			}
		}
	}
	JOINT Spine
	{
		OFFSET 0.028270 2.035590 -0.193380 
		CHANNELS 3 Zrotation Yrotation Xrotation
		JOINT Spine1
		{
			OFFSET 0.056720 2.048850 -0.042750 
			CHANNELS 3 Zrotation Yrotation Xrotation
			JOINT Neck1
			{
				OFFSET -0.054170 1.746240 0.172020 
				CHANNELS 3 Zrotation Yrotation Xrotation
				JOINT Head
				{
					OFFSET 0.104070 1.761360 -0.123970 
					CHANNELS 3 Zrotation Yrotation Xrotation
					End Site
					{
						OFFSET 0.000000 0.000000 0.000000 
					}
				}
			}
			JOINT LeftArm
			{
				OFFSET 3.362410 1.200890 -0.311210 
				CHANNELS 3 Zrotation Yrotation Xrotation
				JOINT LeftForeArm
				{
					OFFSET 4.983000 -0.000000 -0.000000 
					CHANNELS 3 Zrotation Yrotation Xrotation
					JOINT LeftHand
					{
						OFFSET 3.483560 -0.000000 -0.000000 
						CHANNELS 3 Zrotation Yrotation Xrotation
						JOINT LeftHandIndex1
						{
							OFFSET 0.715260 -0.000000 -0.000000 
							CHANNELS 3 Zrotation Yrotation Xrotation
							End Site
							{
								OFFSET 0.000000 0.000000 0.000000 
							}
						}
					}
				}
			}
			JOINT RightArm
			{
				OFFSET -3.136600 1.374050 -0.404650 
				CHANNELS 3 Zrotation Yrotation Xrotation
				JOINT RightForeArm
				{
					OFFSET -5.241900 -0.000000 -0.000000 
					CHANNELS 3 Zrotation Yrotation Xrotation
					JOINT RightHand
					{
						OFFSET -3.444170 -0.000000 -0.000000 
						CHANNELS 3 Zrotation Yrotation Xrotation
						JOINT RightHandIndex1
						{
							OFFSET -0.622530 -0.000000 -0.000000 
							CHANNELS 3 Zrotation Yrotation Xrotation
							End Site
							{
								OFFSET 0.000000 0.000000 0.000000 
							}
						}
					}
				}
			}
		}
	}
}
MOTION
Frames: 13
Frame Time: 0.041667
-31.730593 17.401139 0.148398 175.984861 88.326276 177.429879 -18.817974 -2.991509 -7.376467 1.682687 13.081200 33.350677 -1.420079 11.545541 -22.618265 0.141000 2.419900 6.667500 18.917894 4.276771 -1.237413 -1.837358 -11.562146 29.799995 0.218254 -17.749048 -32.094643 -0.192400 -2.824800 7.791400 0.404941 3.108826 -0.946014 1.986449 1.663600 8.045910 2.003012 17.549027 14.376379 -1.065000 8.559100 13.177400 -76.226842 -7.881267 14.904330 4.629265 -17.450398 -1.609559 -1.053681 0.363100 -9.583195 -7.125000 0.000000 0.000000 68.608860 -2.276936 13.898704 -8.563188 20.674671 -2.941797 1.299660 0.946478 -0.312552 7.125000 0.000000 0.000000 
-31.728567 17.401459 0.171532 175.582794 87.976450 177.204278 -18.760886 -3.351026 -7.472169 1.649678 13.046045 33.215476 -1.495338 11.755847 -22.497230 0.120600 2.238600 6.165400 19.131650 4.846833 -1.144706 -1.831164 -11.600874 29.869004 0.141540 -18.047552 -33.029253 -0.261800 -3.291900 9.092400 0.400219 3.188118 -0.926956 1.863027 1.710638 8.099092 2.035744 18.657486 14.380869 -1.016500 9.102000 13.290800 -76.294299 -7.548984 14.746255 3.876532 -16.420544 -1.371680 -0.969255 0.247430 -4.044227 -7.125000 0.000000 0.000000 68.467721 -2.348055 14.835994 -8.876563 21.082085 -3.031028 1.293785 0.963939 -1.126225 7.125000 0.000000 0.000000 
-31.726009 17.404124 0.196584 170.139431 87.750162 171.848929 -18.926667 -3.476879 -7.543784 1.611602 13.037483 33.080907 -1.520639 11.768509 -22.297927 0.117700 2.211500 6.090500 19.098435 5.335978 -0.934395 -1.845717 -11.612535 29.969652 0.064710 -18.326771 -33.880661 -0.301100 -3.528000 9.752300 0.345333 3.365558 -0.898077 1.681563 1.826728 8.082385 1.984028 19.626970 14.220408 -1.048800 9.594300 13.273800 -76.247759 -7.186962 16.334200 3.712847 -16.287664 -1.303624 -0.980098 -0.117014 -0.600080 -7.125000 0.000000 0.000000 68.499720 -2.402299 15.411770 -9.141856 21.422189 -3.118696 1.299007 0.973470 -1.885899 7.125000 0.000000 0.000000 
-31.717906 17.405724 0.222597 165.609223 87.613995 167.339900 -19.083994 -3.463178 -7.523671 1.587929 13.031116 32.992637 -1.487225 11.613052 -22.183346 0.131100 2.334000 6.429600 19.100002 5.846795 -0.641804 -1.854998 -11.620691 30.046555 -0.020722 -18.534634 -34.670961 -0.338900 -3.741200 10.349600 0.320115 3.526778 -0.876594 1.646119 1.926956 7.967070 1.780878 20.596412 13.967672 -1.179700 10.091800 13.171100 -76.166223 -7.304402 14.858523 3.518458 -16.045602 -1.404245 -0.672581 -1.179600 0.921547 -7.125000 0.000000 0.000000 68.441806 -2.480308 15.865904 -9.351669 21.673395 -3.166307 1.283490 0.972844 -2.494239 7.125000 0.000000 0.000000 
-31.708205 17.404124 0.248076 165.696856 87.467013 167.402228 -19.053872 -3.610031 -7.357541 1.576960 13.009449 32.935832 -1.483216 11.597131 -22.173569 0.136400 2.380500 6.558400 19.336372 6.287559 -0.384260 -1.852689 -11.648962 30.107233 -0.132910 -18.539360 -35.367086 -0.406500 -4.092800 11.338000 0.332186 3.579854 -0.866625 1.607001 1.966320 7.785576 1.538659 21.599338 13.754811 -1.318400 10.604600 13.090700 -76.059965 -7.564536 12.052114 3.527146 -15.827064 -1.311821 -0.250582 -0.037841 -2.700666 -7.125000 0.000000 0.000000 68.347758 -2.490946 16.105510 -9.511478 21.860567 -3.204869 1.255397 0.988384 -2.474441 7.125000 0.000000 0.000000 
-31.705007 17.401779 0.272596 169.226954 87.240780 170.947665 -18.844005 -3.888115 -7.265130 1.572792 12.976643 32.898247 -1.569074 11.915015 -22.241516 0.103500 2.074600 5.711900 19.720840 6.610243 -0.305291 -1.841468 -11.698528 30.159478 -0.230529 -18.495580 -35.920981 -0.480400 -4.444700 12.331300 0.356889 3.661782 -0.875737 1.548517 2.023645 7.543691 1.406891 22.431235 13.545667 -1.382800 11.033100 12.971900 -76.460502 -5.456951 21.818495 3.337237 -16.078955 -1.151365 -1.055042 0.321805 1.582757 -7.125000 0.000000 0.000000 68.252490 -2.460667 15.997146 -9.640058 22.010244 -3.265420 1.235149 1.031932 -2.189365 7.125000 0.000000 0.000000 
-31.699996 17.398368 0.295303 171.366060 87.004375 173.126517 -18.666991 -3.962890 -7.301912 1.573997 12.955111 32.875015 -1.667454 12.206552 -22.122396 0.071700 1.727200 4.752400 19.989094 6.818533 -0.269514 -1.834665 -11.740618 30.213294 -0.284247 -18.615328 -36.398080 -0.502000 -4.542000 12.606800 0.351526 3.835064 -0.852450 1.452211 2.112590 7.509564 1.290510 22.970248 13.320157 -1.450000 11.315600 12.841900 -76.423166 -5.333904 22.704870 3.296878 -16.047656 -1.125390 -1.018447 0.319461 1.046947 -7.125000 0.000000 0.000000 68.204726 -2.379984 15.905373 -9.794942 22.194886 -3.328231 1.217652 1.058497 -2.549978 7.125000 0.000000 0.000000 
-31.691255 17.394956 0.318650 168.605944 86.746014 170.346745 -18.788392 -3.872737 -7.339229 1.569238 12.963085 32.843517 -1.722798 12.243730 -21.681396 0.061200 1.595600 4.389400 19.871153 6.756130 -0.141790 -1.852038 -11.743807 30.288362 -0.319132 -18.726024 -36.714231 -0.502800 -4.545900 12.617700 0.305668 3.976879 -0.811645 1.334911 2.193347 7.570683 1.086929 23.332354 13.153292 -1.573800 11.505900 12.801900 -76.396454 -5.311716 23.192602 3.199138 -15.916017 -1.087635 -1.001405 0.255958 1.275244 -7.125000 0.000000 0.000000 68.294804 -2.315527 15.907617 -9.999723 22.432422 -3.393414 1.211576 1.052322 -3.093543 7.125000 0.000000 0.000000 
-31.680807 17.394530 0.341784 165.545952 86.358409 167.235274 -19.003928 -3.832117 -7.322343 1.560313 12.969578 32.797165 -1.737477 12.135674 -21.199619 0.053900 1.498700 4.122100 19.602263 6.465271 -0.007970 -1.877602 -11.733905 30.365518 -0.380481 -18.656030 -36.954597 -0.519600 -4.620000 12.827700 0.256299 4.018269 -0.799765 1.207861 2.229684 7.537923 0.890515 23.590340 13.068870 -1.696400 11.647900 12.792900 -76.452050 -4.954325 23.732571 3.303826 -16.094601 -1.102959 -1.049658 -0.006014 1.570966 -7.125000 0.000000 0.000000 68.426420 -2.368136 16.096561 -10.216237 22.687521 -3.454730 1.224926 1.019609 -3.732351 7.125000 0.000000 0.000000 
-31.673771 17.398794 0.365238 165.165704 85.973026 166.903889 -19.027067 -3.937983 -7.344167 1.552152 12.958887 32.749827 -1.720552 11.992232 -20.939648 0.050300 1.447700 3.981600 19.570052 6.453886 0.053860 -1.884464 -11.741389 30.412741 -0.503515 -18.501627 -37.457914 -0.572300 -4.844900 13.466800 0.226755 4.053891 -0.808806 1.100903 2.258133 7.482625 0.760213 23.747462 13.005871 -1.791200 11.745900 12.755600 -76.575951 -4.484578 24.056893 3.503295 -16.404815 -1.148073 -0.947244 0.150855 2.471404 -7.125000 0.000000 0.000000 68.481284 -2.520929 16.780418 -10.503457 23.040777 -3.530976 1.253616 0.970238 -5.069498 7.125000 0.000000 0.000000 
-31.674197 17.406150 0.390077 166.050194 85.598089 167.912033 -18.892380 -3.990718 -7.497811 1.550161 12.942973 32.716965 -1.687126 11.796215 -20.703967 0.046100 1.386200 3.812100 19.695027 6.592450 0.037843 -1.876173 -11.755194 30.421643 -0.611293 -18.446987 -37.994877 -0.640300 -5.119300 14.249200 0.214025 4.075501 -0.814520 1.023617 2.270562 7.487966 0.682172 23.854825 12.969605 -1.825400 11.796800 12.760500 -76.754862 -4.286477 23.918107 3.635321 -16.592713 -1.182351 -0.862036 0.143251 4.244378 -7.125000 0.000000 0.000000 68.488974 -2.506694 17.220597 -10.782996 23.379881 -3.636405 1.273881 0.968844 -5.908805 7.125000 0.000000 0.000000 
-31.675583 17.408069 0.413957 166.704337 85.210874 168.635146 -18.779280 -3.965472 -7.638027 1.555948 12.934651 32.705233 -1.705875 11.721879 -20.279296 0.030300 1.124100 3.090400 19.795380 6.606915 0.060090 -1.867810 -11.759993 30.416563 -0.685812 -18.468439 -38.425507 -0.691300 -5.315400 14.810400 0.198902 4.144516 -0.821819 0.961594 2.308531 7.443481 0.535985 23.804362 12.900441 -1.935900 11.784500 12.741200 -76.926313 -4.050948 24.223688 3.796995 -16.835901 -1.219360 -0.839958 0.078306 4.721691 -7.125000 0.000000 0.000000 68.564394 -2.516669 17.155539 -10.999039 23.645974 -3.752515 1.268096 1.023522 -6.116646 7.125000 0.000000 0.000000 
-31.671426 17.406363 0.434000 167.180965 84.868101 169.175688 -18.725890 -4.122395 -7.688991 1.558564 12.933980 32.711871 -1.715455 11.715182 -20.155072 0.021500 0.947500 2.604400 19.901661 6.755031 0.142531 -1.856576 -11.758266 30.398737 -0.801634 -18.431860 -39.000799 -0.754300 -5.547100 15.475800 0.159059 4.352450 -0.863761 0.847270 2.428742 7.242767 0.349236 23.477487 12.812275 -2.213200 11.714400 12.633300 -77.012637 -3.402425 24.751234 4.050438 -17.246765 -1.282892 -0.842746 0.086304 3.720602 -7.125000 0.000000 0.000000 68.796506 -2.999971 17.050891 -11.272964 23.996468 -3.879705 1.250467 1.059454 -6.533487 7.125000 0.000000 0.000000 
